<svg width="34" height="30" viewBox="0 0 34 30" fill="none" xmlns="http://www.w3.org/2000/svg">
    <path d="M11.9943 29.6999C11.9197 29.5836 11.7865 29.618 11.6826 29.5915C10.5586 29.3086 9.84469 28.2906 9.95657 27.1167C10.0552 26.0643 10.9848 25.1944 12.0662 25.1363C13.2302 25.0754 14.2345 25.8264 14.4689 26.9316C14.7379 28.2008 13.8322 29.4514 12.511 29.6338C12.4445 29.6444 12.3565 29.6048 12.3166 29.6999C12.2074 29.6999 12.1008 29.6999 11.9943 29.6999Z" fill="#15274F"/>
    <path d="M10.729 14.2136C10.4014 13.3596 10.167 12.5426 9.96722 11.7176C9.62631 10.3056 9.63159 10.3056 10.2576 8.98361C11.4855 6.39241 13.1849 4.15023 15.3159 2.2227C15.4011 2.14337 15.4917 2.06934 15.5822 1.9953C15.6062 1.97415 15.6329 1.96093 15.6781 1.9292C16.1017 2.7568 16.5518 3.56589 17.0766 4.33003C17.2684 4.60766 17.4521 4.89322 17.6653 5.15499C17.8117 5.33742 17.8011 5.4247 17.6039 5.56747C16.0271 6.72027 14.6473 8.07139 13.4566 9.61291C12.3725 11.0169 11.4909 12.5399 10.729 14.2136Z" fill="#15274F"/>
    <path d="M14.7111 9.17126C15.2651 8.50494 15.8405 7.90473 16.4531 7.34158C16.5623 7.24108 16.6848 7.15382 16.7807 7.04276C17.2469 6.51396 17.8382 6.30246 18.5388 6.23898C21.6685 5.95076 24.7238 6.26014 27.7045 7.25962C27.7444 7.2728 27.7763 7.29926 27.827 7.32835C27.1104 8.40712 26.4818 9.52291 25.973 10.7022C25.8798 10.919 25.7653 10.7789 25.6721 10.7392C24.4494 10.2262 23.1948 9.82698 21.8976 9.54407C19.5856 9.03642 17.2549 8.90421 14.9002 9.17389C14.8522 9.17657 14.8016 9.17126 14.7111 9.17126Z" fill="#15274F"/>
    <path d="M21.0081 10.0649C22.1375 10.2447 23.1816 10.5461 24.2284 10.8634C24.7451 11.0194 25.1021 11.305 25.4191 11.7307C27.3103 14.2558 28.5489 17.0665 29.2255 20.131C29.2787 20.3663 29.2548 20.4641 28.9617 20.4403C27.7711 20.3425 26.5831 20.4139 25.3978 20.5355C25.2592 20.5487 25.1687 20.5725 25.1447 20.3742C24.6919 16.6275 23.3414 13.2299 21.072 10.1971C21.0586 10.1707 21.048 10.1416 21.0081 10.0649Z" fill="#15274F"/>
    <path d="M13.1023 20.0568C11.8584 19.8374 10.6678 19.5175 9.49839 19.1129C9.2986 19.0442 9.15213 18.9304 9.02428 18.7639C6.98924 16.1251 5.61742 13.1901 4.94352 9.93263C4.90889 9.76608 4.92753 9.69729 5.11399 9.71583C6.32597 9.83743 7.53259 9.74492 8.73927 9.63917C8.90171 9.62593 8.95768 9.65235 8.979 9.82426C9.42915 13.4995 10.7636 16.8311 12.9452 19.8321C12.9932 19.9008 13.0411 19.9696 13.1023 20.0568Z" fill="#15274F"/>
    <path d="M23.416 15.9851C23.7756 16.9449 24.0473 17.8889 24.2471 18.8566C24.2604 18.9174 24.2711 18.9809 24.2897 19.0417C24.4549 19.5652 24.3776 20.0412 24.1485 20.5515C22.854 23.4282 21.0533 25.9348 18.68 28.0369C18.5095 28.1876 18.4509 28.1691 18.355 27.9734C17.833 26.9237 17.2204 25.9269 16.5198 24.9856C16.4026 24.8296 16.3866 24.7476 16.5651 24.6154C19.6017 22.3494 21.8684 19.4833 23.416 15.9851Z" fill="#15274F"/>
    <path d="M19.4843 20.9559C18.9117 21.6408 18.339 22.2409 17.7343 22.8121C17.5186 23.0157 17.2708 23.1902 17.0791 23.4123C16.6529 23.9094 16.0562 23.875 15.4968 23.9252C12.4869 24.195 9.53557 23.912 6.65345 22.9919C6.26191 22.8676 6.26191 22.8676 6.4883 22.5186C7.10095 21.5694 7.647 20.5805 8.09451 19.5466C8.19041 19.3246 8.28097 19.306 8.49139 19.3933C11.4587 20.6518 14.5593 21.1992 17.7823 21.0802C18.3283 21.059 18.8744 21.0009 19.4843 20.9559Z" fill="#15274F"/>
    <path d="M25.4193 27.6138C24.1487 27.6138 23.1658 26.6355 23.1685 25.3716C23.1711 24.1421 24.1487 23.1797 25.3979 23.1797C26.6765 23.177 27.6621 24.1421 27.6727 25.4033C27.6834 26.6275 26.6792 27.6138 25.4193 27.6138Z" fill="#15274F"/>
    <path d="M8.74451 2.49514C9.99641 2.49778 11.0059 3.50782 11.0086 4.75847C11.0113 6.01441 9.9698 7.03505 8.70722 7.01389C7.44997 6.99273 6.43245 5.96684 6.44843 4.73732C6.46176 3.50253 7.50059 2.48985 8.74451 2.49514Z" fill="#15274F"/>
    <path d="M6.12094 17.0664C6.12094 18.3091 5.13272 19.3007 3.88879 19.3033C2.62887 19.3059 1.59804 18.2879 1.61934 17.0611C1.64066 15.821 2.63687 14.8401 3.8808 14.8401C5.13006 14.8401 6.12094 15.8237 6.12094 17.0664Z" fill="#15274F"/>
    <path d="M21.9271 0.535645C23.1843 0.535645 24.1752 1.51396 24.1779 2.75403C24.1779 3.99675 23.1657 5.0015 21.9111 4.99886C20.6805 4.99622 19.679 3.98617 19.679 2.75139C19.679 1.51131 20.6698 0.535645 21.9271 0.535645Z" fill="#15274F"/>
    <path d="M30.2805 15.332C29.0153 15.3346 28.0031 14.3457 27.9924 13.0977C27.9818 11.8497 28.9886 10.8317 30.2405 10.8264C31.5271 10.8211 32.5473 11.8127 32.5526 13.0713C32.5579 14.3061 31.5297 15.3293 30.2805 15.332Z" fill="#15274F"/>
</svg>
