<svg width="18" height="20" viewBox="0 0 18 20" fill="none" xmlns="http://www.w3.org/2000/svg">
    <path d="M2.3077 19.5001C1.80257 19.5001 1.375 19.3251 1.025 18.9751C0.675 18.6251 0.5 18.1975 0.5 17.6924V4.30784C0.5 3.80271 0.675 3.37514 1.025 3.02514C1.375 2.67514 1.80257 2.50014 2.3077 2.50014H3.69233V0.384766H5.23075V2.50014H12.8077V0.384766H14.3076V2.50014H15.6923C16.1974 2.50014 16.625 2.67514 16.975 3.02514C17.325 3.37514 17.5 3.80271 17.5 4.30784V17.6924C17.5 18.1975 17.325 18.6251 16.975 18.9751C16.625 19.3251 16.1974 19.5001 15.6923 19.5001H2.3077ZM2.3077 18.0001H15.6923C15.7692 18.0001 15.8397 17.9681 15.9038 17.904C15.9679 17.8398 16 17.7693 16 17.6924V8.30784H1.99997V17.6924C1.99997 17.7693 2.03202 17.8398 2.09612 17.904C2.16024 17.9681 2.23077 18.0001 2.3077 18.0001ZM1.99997 6.80787H16V4.30784C16 4.23091 15.9679 4.16038 15.9038 4.09627C15.8397 4.03217 15.7692 4.00012 15.6923 4.00012H2.3077C2.23077 4.00012 2.16024 4.03217 2.09612 4.09627C2.03202 4.16038 1.99997 4.23091 1.99997 4.30784V6.80787Z" fill="#6B6888"/>
</svg>
