<svg width="20" height="18" viewBox="0 0 20 18" fill="none" xmlns="http://www.w3.org/2000/svg">
    <path d="M9.99998 14.8461C11.3166 14.8461 12.4291 14.3747 13.3375 13.4317C14.2458 12.4887 14.732 11.3461 14.7961 10.0038L15.7 10.8384L16.5384 9.99998L14.25 7.71153L11.9615 9.99998L12.8 10.8384L13.6038 10.0346C13.5167 11.0333 13.1385 11.8862 12.4692 12.5933C11.8 13.3003 10.9769 13.6538 9.99998 13.6538C9.78973 13.6538 9.58363 13.633 9.3817 13.5913C9.17978 13.5497 8.98203 13.4936 8.78845 13.4231L7.9 14.3115C8.23462 14.4731 8.57692 14.6025 8.9269 14.7C9.2769 14.7974 9.63459 14.8461 9.99998 14.8461ZM5.74998 12.2884L8.03843 9.99998L7.19998 9.16153L6.39613 9.96538C6.48329 8.96666 6.86149 8.11377 7.53073 7.4067C8.19996 6.69965 9.02304 6.34613 9.99998 6.34613C10.2102 6.34613 10.4163 6.36696 10.6183 6.40863C10.8202 6.45029 11.0179 6.50638 11.2115 6.57688L12.1 5.68845C11.7653 5.5269 11.423 5.39741 11.0731 5.29998C10.7231 5.20254 10.3654 5.15383 9.99998 5.15383C8.68331 5.15383 7.57081 5.6253 6.66248 6.56825C5.75414 7.51122 5.26792 8.65385 5.20382 9.99615L4.29998 9.16153L3.46153 9.99998L5.74998 12.2884ZM2.3077 17.5C1.80257 17.5 1.375 17.325 1.025 16.975C0.675 16.625 0.5 16.1974 0.5 15.6923V4.3077C0.5 3.80257 0.675 3.375 1.025 3.025C1.375 2.675 1.80257 2.5 2.3077 2.5H5.36153L7.21153 0.5H12.7884L14.6384 2.5H17.6923C18.1974 2.5 18.625 2.675 18.975 3.025C19.325 3.375 19.5 3.80257 19.5 4.3077V15.6923C19.5 16.1974 19.325 16.625 18.975 16.975C18.625 17.325 18.1974 17.5 17.6923 17.5H2.3077ZM2.3077 16H17.6923C17.782 16 17.8557 15.9711 17.9134 15.9134C17.9711 15.8557 18 15.782 18 15.6923V4.3077C18 4.21795 17.9711 4.14423 17.9134 4.08653C17.8557 4.02883 17.782 3.99998 17.6923 3.99998H13.9692L12.1346 1.99998H7.86535L6.03075 3.99998H2.3077C2.21795 3.99998 2.14423 4.02883 2.08653 4.08653C2.02883 4.14423 1.99998 4.21795 1.99998 4.3077V15.6923C1.99998 15.782 2.02883 15.8557 2.08653 15.9134C2.14423 15.9711 2.21795 16 2.3077 16Z" fill="#15274F"/>
</svg>
