<svg width="18" height="18" viewBox="0 0 18 18" fill="none" xmlns="http://www.w3.org/2000/svg">
<mask id="mask0_1936_1122" style="mask-type:alpha" maskUnits="userSpaceOnUse" x="0" y="0" width="18" height="18">
<rect width="18" height="18" fill="#D9D9D9"/>
</mask>
<g mask="url(#mask0_1936_1122)">
<path d="M4.28097 15.8249C3.94337 15.8249 3.65801 15.7061 3.42488 15.4686C3.19176 15.2311 3.0752 14.9479 3.0752 14.6191V5.18069C3.0752 4.85184 3.19176 4.56866 3.42488 4.33116C3.65801 4.09366 3.94337 3.97491 4.28097 3.97491H5.91944V2.08838H6.92326V3.97491H11.1059V2.08838H12.0809V3.97491H13.7194C14.057 3.97491 14.3423 4.09366 14.5755 4.33116C14.8086 4.56866 14.9252 4.85184 14.9252 5.18069V14.6191C14.9252 14.9479 14.8086 15.2311 14.5755 15.4686C14.3423 15.7061 14.057 15.8249 13.7194 15.8249H4.28097ZM4.28097 14.8499H13.7194C13.7771 14.8499 13.83 14.8259 13.8781 14.7778C13.9261 14.7297 13.9502 14.6768 13.9502 14.6191V8.33069H4.05018V14.6191C4.05018 14.6768 4.07421 14.7297 4.12229 14.7778C4.17038 14.8259 4.22327 14.8499 4.28097 14.8499ZM4.05018 7.3557H13.9502V5.18069C13.9502 5.12299 13.9261 5.07009 13.8781 5.022C13.83 4.97393 13.7771 4.94989 13.7194 4.94989H4.28097C4.22327 4.94989 4.17038 4.97393 4.12229 5.022C4.07421 5.07009 4.05018 5.12299 4.05018 5.18069V7.3557Z" fill="#6B6888"/>
</g>
</svg>
