<svg viewBox="0 0 24 24" fill="none" xmlns="http://www.w3.org/2000/svg">
    <mask id="mask0_1765_2256" style="mask-type:alpha" maskUnits="userSpaceOnUse" x="0" y="0"
        width="24" height="24">
        <rect width="24" height="24" fill="#D9D9D9" />
    </mask>
    <g mask="url(#mask0_1765_2256)">
        <path
            d="M7.3077 20.4998C6.80898 20.4998 6.38302 20.3232 6.02982 19.97C5.67661 19.6168 5.5 19.1908 5.5 18.6921V5.99981H4.5V4.49983H8.99997V3.61523H15V4.49983H19.5V5.99981H18.5V18.6921C18.5 19.1972 18.325 19.6248 17.975 19.9748C17.625 20.3248 17.1974 20.4998 16.6922 20.4998H7.3077ZM17 5.99981H6.99997V18.6921C6.99997 18.7818 7.02883 18.8556 7.08652 18.9133C7.14422 18.971 7.21795 18.9998 7.3077 18.9998H16.6922C16.7692 18.9998 16.8397 18.9678 16.9038 18.9037C16.9679 18.8395 17 18.769 17 18.6921V5.99981ZM9.40385 16.9998H10.9038V7.99981H9.40385V16.9998ZM13.0961 16.9998H14.5961V7.99981H13.0961V16.9998Z"
            fill="#C00404" />
    </g>
</svg>