<svg width="18" height="18" viewBox="0 0 18 18" fill="none" xmlns="http://www.w3.org/2000/svg">
<mask id="mask0_1936_1107" style="mask-type:alpha" maskUnits="userSpaceOnUse" x="0" y="0" width="18" height="18">
<rect width="18" height="18" fill="#D9D9D9"/>
</mask>
<g mask="url(#mask0_1936_1107)">
<path d="M2.39844 13.8808V12.5885C2.39844 12.3048 2.46695 12.0542 2.60397 11.837C2.74099 11.6198 2.93244 11.4393 3.17832 11.2956C3.79109 10.9345 4.43592 10.6501 5.11284 10.4424C5.78976 10.2347 6.55996 10.1309 7.42342 10.1309C8.28688 10.1309 9.05707 10.2347 9.73398 10.4424C10.4109 10.6501 11.0557 10.9345 11.6685 11.2956C11.9144 11.4393 12.1059 11.6198 12.2429 11.837C12.3799 12.0542 12.4484 12.3048 12.4484 12.5885V13.8808H2.39844ZM13.7984 13.8808V12.6462C13.7984 12.1789 13.7091 11.7504 13.5305 11.3606C13.3519 10.9708 13.1162 10.6536 12.8234 10.4092C13.1763 10.5092 13.5256 10.6316 13.8712 10.7763C14.2169 10.921 14.5575 11.0943 14.8931 11.2963C15.1056 11.4155 15.2767 11.5977 15.4065 11.843C15.5363 12.0882 15.6013 12.356 15.6013 12.6462V13.8808H13.7984ZM7.42342 8.7693C6.77656 8.7693 6.22734 8.54352 5.77578 8.09197C5.32422 7.64041 5.09844 7.0912 5.09844 6.44433C5.09844 5.79746 5.32422 5.24825 5.77578 4.7967C6.22734 4.34513 6.77656 4.11935 7.42342 4.11935C8.07028 4.11935 8.61949 4.34513 9.07106 4.7967C9.52261 5.24825 9.74838 5.79746 9.74838 6.44433C9.74838 7.0912 9.52261 7.64041 9.07106 8.09197C8.61949 8.54352 8.07028 8.7693 7.42342 8.7693ZM12.6993 6.44433C12.6993 7.0912 12.4735 7.64041 12.022 8.09197C11.5704 8.54352 11.0212 8.7693 10.3743 8.7693C10.3272 8.7693 10.3008 8.77218 10.295 8.77796C10.2893 8.78373 10.2628 8.78133 10.2157 8.77076C10.4865 8.45267 10.7013 8.09882 10.8601 7.70919C11.019 7.31957 11.0984 6.89765 11.0984 6.44343C11.0984 5.98923 11.0174 5.5691 10.8554 5.18304C10.6934 4.79699 10.4801 4.44195 10.2157 4.11791C10.2484 4.11695 10.2748 4.11695 10.295 4.11791C10.3152 4.11887 10.3416 4.11935 10.3743 4.11935C11.0212 4.11935 11.5704 4.34513 12.022 4.7967C12.4735 5.24825 12.6993 5.79746 12.6993 6.44433ZM3.37342 12.9058H11.4734V12.5885C11.4734 12.4884 11.4497 12.4005 11.4023 12.3247C11.3548 12.2489 11.2713 12.1782 11.1518 12.1126C10.622 11.7943 10.0489 11.547 9.43256 11.3705C8.81621 11.1941 8.14649 11.1058 7.42342 11.1058C6.70034 11.1058 6.03063 11.1909 5.41428 11.3611C4.79794 11.5313 4.22487 11.7818 3.69506 12.1126C3.57549 12.1767 3.49199 12.2454 3.44456 12.3186C3.39713 12.3918 3.37342 12.4812 3.37342 12.5868V12.9058ZM7.42739 7.79433C7.79974 7.79433 8.11717 7.66175 8.37967 7.39659C8.64217 7.13144 8.77342 6.81269 8.77342 6.44034C8.77342 6.068 8.64084 5.75058 8.37569 5.48808C8.11053 5.22558 7.79178 5.09433 7.41944 5.09433C7.04709 5.09433 6.72967 5.22691 6.46717 5.49206C6.20467 5.75722 6.07342 6.07597 6.07342 6.44831C6.07342 6.82066 6.20599 7.13808 6.47114 7.40058C6.73631 7.66308 7.05506 7.79433 7.42739 7.79433Z" fill="#6B6888"/>
</g>
</svg>
