<svg width="18" height="18" viewBox="0 0 18 18" fill="none" xmlns="http://www.w3.org/2000/svg">
<mask id="mask0_1936_1117" style="mask-type:alpha" maskUnits="userSpaceOnUse" x="0" y="0" width="18" height="18">
<rect width="18" height="18" fill="#D9D9D9"/>
</mask>
<g mask="url(#mask0_1936_1117)">
<path d="M9.00506 8.89882C9.33809 8.89882 9.62144 8.78024 9.85509 8.54307C10.0887 8.30592 10.2056 8.02083 10.2056 7.68779C10.2056 7.35477 10.087 7.07143 9.84984 6.83778C9.61268 6.60413 9.32758 6.4873 8.99456 6.4873C8.66152 6.4873 8.37818 6.60588 8.14453 6.84303C7.91088 7.08019 7.79405 7.36529 7.79405 7.69831C7.79405 8.03135 7.91263 8.31469 8.14978 8.54834C8.38694 8.78199 8.67203 8.89882 9.00506 8.89882ZM8.99981 14.5411C10.4296 13.2902 11.5431 12.071 12.3402 10.8834C13.1373 9.69595 13.5359 8.64883 13.5359 7.74209C13.5359 6.42479 13.1077 5.32888 12.2515 4.45436C11.3952 3.57983 10.3113 3.14257 8.99981 3.14257C7.68827 3.14257 6.60438 3.57983 5.74813 4.45436C4.89188 5.32888 4.46375 6.42479 4.46375 7.74209C4.46375 8.64883 4.86231 9.69595 5.65942 10.8834C6.45654 12.071 7.57001 13.2902 8.99981 14.5411ZM8.99981 15.832C7.16263 14.2701 5.78483 12.8164 4.86641 11.4709C3.94798 10.1254 3.48877 8.88248 3.48877 7.74209C3.48877 6.21134 4.00175 4.90077 5.02771 3.81039C6.05366 2.72 7.37457 2.1748 8.99043 2.1748C10.6063 2.1748 11.9303 2.72 12.9625 3.81039C13.9947 4.90077 14.5108 6.21134 14.5108 7.74209C14.5108 8.88248 14.0548 10.1226 13.1428 11.4625C12.2308 12.8024 10.8498 14.2589 8.99981 15.832Z" fill="#6B6888"/>
</g>
</svg>
