<svg width="18" height="18" viewBox="0 0 18 18" fill="none" xmlns="http://www.w3.org/2000/svg">
<mask id="mask0_1936_1127" style="mask-type:alpha" maskUnits="userSpaceOnUse" x="0" y="0" width="18" height="18">
<rect width="18" height="18" fill="#D9D9D9"/>
</mask>
<g mask="url(#mask0_1936_1127)">
<path d="M11.6421 12.0575L12.3387 11.3609L9.48727 8.50923V4.49979H8.5123V8.92767L11.6421 12.0575ZM9.00104 15.8248C8.0609 15.8248 7.1772 15.6471 6.34994 15.2919C5.52268 14.9366 4.79772 14.4478 4.17505 13.8255C3.55238 13.2031 3.06334 12.4775 2.70792 11.6488C2.35251 10.8201 2.1748 9.93467 2.1748 8.99246C2.1748 8.05023 2.35243 7.16432 2.70768 6.33472C3.06293 5.5051 3.55174 4.78209 4.17412 4.16568C4.7965 3.54926 5.52205 3.06334 6.35075 2.70792C7.17945 2.35251 8.0649 2.1748 9.00712 2.1748C9.94934 2.1748 10.8353 2.35393 11.665 2.71218C12.4947 3.07043 13.2164 3.55662 13.8301 4.17074C14.4438 4.78488 14.9297 5.50706 15.2877 6.33729C15.6458 7.1675 15.8248 8.05458 15.8248 8.99853C15.8248 9.93867 15.6471 10.8224 15.2919 11.6496C14.9366 12.4769 14.451 13.2019 13.8348 13.8245C13.2187 14.4472 12.4952 14.9362 11.6643 15.2916C10.8335 15.6471 9.94572 15.8248 9.00104 15.8248ZM9.00873 14.8498C10.6272 14.8498 12.0053 14.2779 13.1431 13.1342C14.2809 11.9904 14.8498 10.6093 14.8498 8.99084C14.8498 7.37238 14.2809 5.99426 13.1431 4.85647C12.0053 3.71868 10.6272 3.14979 9.00873 3.14979C7.39027 3.14979 6.00916 3.71868 4.86541 4.85647C3.72166 5.99426 3.14979 7.37238 3.14979 8.99084C3.14979 10.6093 3.72166 11.9904 4.86541 13.1342C6.00916 14.2779 7.39027 14.8498 9.00873 14.8498Z" fill="#6B6888"/>
</g>
</svg>
